<?xml version="1.0" encoding="UTF-8"?>
<svg width="400" height="600" xmlns="http://www.w3.org/2000/svg">
  <defs>
    <linearGradient id="gradmala_beads" x1="0%" y1="0%" x2="100%" y2="100%">
      <stop offset="0%" style="stop-color:#8B4513;stop-opacity:1" />
      <stop offset="100%" style="stop-color:#D2691E;stop-opacity:1" />
    </linearGradient>
    <filter id="shadow">
      <feDropShadow dx="0" dy="4" stdDeviation="8" flood-opacity="0.3"/>
    </filter>
  </defs>

  <!-- Background gradient -->
  <rect width="400" height="600" fill="url(#gradmala_beads)"/>

  <!-- Decorative border -->
  <rect x="15" y="15" width="370" height="570" fill="none" stroke="rgba(255,255,255,0.3)" stroke-width="2" rx="10"/>
  <rect x="25" y="25" width="350" height="550" fill="none" stroke="rgba(255,255,255,0.5)" stroke-width="1" rx="8"/>

  <!-- Spiritual symbol based on theme -->
  
            <!-- Mala circle -->
            <circle cx="200" cy="220" r="100" fill="none" stroke="rgba(255,255,255,0.3)" stroke-width="3"/>
            <circle cx="300" cy="220" r="8" fill="rgba(255,255,255,0.7)"/>
<circle cx="286.6025403784439" cy="270" r="8" fill="rgba(255,255,255,0.7)"/>
<circle cx="250" cy="306.60254037844385" r="8" fill="rgba(255,255,255,0.7)"/>
<circle cx="200" cy="320" r="8" fill="rgba(255,255,255,0.7)"/>
<circle cx="150.00000000000003" cy="306.6025403784439" r="8" fill="rgba(255,255,255,0.7)"/>
<circle cx="113.39745962155612" cy="270" r="8" fill="rgba(255,255,255,0.7)"/>
<circle cx="100" cy="220" r="8" fill="rgba(255,255,255,0.7)"/>
<circle cx="113.39745962155614" cy="170" r="8" fill="rgba(255,255,255,0.7)"/>
<circle cx="149.99999999999994" cy="133.39745962155615" r="8" fill="rgba(255,255,255,0.7)"/>
<circle cx="199.99999999999997" cy="120" r="8" fill="rgba(255,255,255,0.7)"/>
<circle cx="250" cy="133.39745962155615" r="8" fill="rgba(255,255,255,0.7)"/>
<circle cx="286.60254037844385" cy="169.99999999999994" r="8" fill="rgba(255,255,255,0.7)"/>
            <!-- Center bead -->
            <circle cx="200" cy="220" r="15" fill="rgba(255,255,255,0.9)"/>
        

  <!-- Book title in Hindi -->
  <text x="200" y="480" font-family="Arial, sans-serif" font-size="32" font-weight="bold"
        fill="white" text-anchor="middle" filter="url(#shadow)">आत्मबोध माला</text>

  <!-- Decorative element at bottom -->
  <circle cx="200" cy="540" r="3" fill="rgba(255,255,255,0.8)"/>
  <circle cx="185" cy="540" r="2" fill="rgba(255,255,255,0.6)"/>
  <circle cx="215" cy="540" r="2" fill="rgba(255,255,255,0.6)"/>
</svg>